<?xml version="1.0" encoding="utf-8"?>
<!-- Generator: Adobe Illustrator 24.0.1, SVG Export Plug-In . SVG Version: 6.00 Build 0)  -->
<svg version="1.1" id="Calque_1" xmlns="http://www.w3.org/2000/svg" xmlns:xlink="http://www.w3.org/1999/xlink" x="0px" y="0px"
	 viewBox="0 0 43 32" style="enable-background:new 0 0 43 32;" xml:space="preserve">
<path d="M8.4,19.5l-2.8-4.7L3.9,17l0.1,5.2c0,0.2-0.2,0.4-0.4,0.4H0.3c-0.2,0-0.3-0.2-0.3-0.4l0.2-10.9L0,0.4C0,0.2,0.2,0,0.3,0h3.2
	c0.2,0,0.4,0.2,0.4,0.4L3.8,11.3l0,1.4l5.5-6.4C9.4,6.1,9.6,6,9.8,6h3.6c0.1,0,0.2,0.2,0.1,0.3L8.4,12l6,10.3c0.1,0.1,0,0.3-0.2,0.3
	h-3.8c-0.2,0-0.4-0.1-0.5-0.3L8.4,19.5z"/>
<path d="M25.4,23c-5.2,0-8.2-3.4-8.2-8.7c0-5.3,3-8.8,8.2-8.8c5.2,0,8.1,3.4,8.1,8.7C33.5,19.6,30.6,23,25.4,23z M25.4,20.3
	c2.8,0,4.1-1.9,4.1-5.9c0-3.9-1.4-6-4.2-6c-2.8,0-4.2,2.1-4.2,6C21.2,18.3,22.6,20.3,25.4,20.3z"/>
<path d="M39.4,32c-0.2,0-0.3-0.2-0.3-0.4l0.1-14.6L39,6.3C39,6.1,39.2,6,39.4,6h3.3C42.8,6,43,6.1,43,6.3l-0.1,10.7L43,28.3
	C43,30.4,41.4,32,39.4,32z M39.4,4.2C39.2,4.2,39,4,39,3.8V0.7c0-0.2,0.2-0.4,0.4-0.4h3.2c0.2,0,0.3,0.2,0.3,0.4v3.1
	c0,0.2-0.2,0.4-0.3,0.4H39.4L39.4,4.2z"/>
<path d="M0.2,31.6v-3c0-0.2,0.2-0.4,0.4-0.4h32.6c0.2,0,0.4,0.2,0.4,0.4v3c0,0.2-0.2,0.4-0.4,0.4H0.6C0.4,32,0.2,31.8,0.2,31.6z"/>
</svg>
