<svg width="980" height="958" viewBox="0 0 980 958" fill="none" xmlns="http://www.w3.org/2000/svg">
<path d="M461.9 0.399961C461.7 0.599961 457.2 1.09996 452 1.39996C446.8 1.79996 441.4 2.19996 440 2.49996C438.6 2.69996 434.4 3.19996 430.7 3.49996C427 3.89996 422.9 4.29996 421.7 4.59996C420.5 4.79996 417.8 5.19996 415.5 5.49996C408.8 6.49996 399.8 7.99996 395 8.99996C392.5 9.49996 389.4 10.2 388 10.4C369.8 13.5 321.9 27.9 304.7 35.3C303 36.1 297 38.7 291.5 41C280.1 45.8 255 58.2 247.5 62.7C244.8 64.3 241.8 65.9 241 66.3C240.2 66.8 238.6 67.6 237.5 68.3C236.4 69 233.3 70.9 230.5 72.5C213.5 82.5 187.7 101.3 167.2 118.5C146.9 135.5 120.9 162.7 102.1 186.2C91.6 199.5 90.5 201.1 77.6 220.5C48.6 264.3 26.9 313.2 14.5 363C9.00001 385.3 5.50001 403.8 3.40001 421.9C3.10001 424.9 2.70001 428 2.50001 428.9C-0.0999941 442.7 -0.199994 508.4 2.50001 527.5C2.70001 529.1 3.40001 534.5 4.00001 539.5C5.70001 553.1 6.00001 555.1 7.00001 560C7.50001 562.5 8.20001 565.8 8.50001 567.5C8.70001 569.1 9.50001 573 10.1 576C10.7 579 11.6 583.4 12.1 585.8C12.6 588.2 13.2 590.5 13.4 590.9C13.7 591.3 14.1 592.8 14.4 594.2C14.6 595.6 15.8 600.3 17 604.6C33.5 664.3 65.9 727.5 104.1 774.5C120.2 794.2 143.5 818.7 159.9 833C163.9 836.6 167.8 840 168.4 840.5C170.8 842.8 185 854 192.5 859.6C227 885.6 268.8 908.8 308.6 924C314.6 926.3 320.4 928.5 321.5 929C322.6 929.5 330 932 338 934.5C362.7 942.3 389.5 948.6 415.5 952.5C417.7 952.8 421.1 953.3 423 953.6C424.9 953.8 427.9 954.2 429.5 954.5C431.2 954.8 435.4 955.2 439 955.5C442.6 955.8 447.5 956.4 450 956.7C452.5 957 557.8 957.5 684 957.7C854.6 958 915.4 957.8 921 957C947.4 952.9 969.3 933.4 977.6 906.5C979.4 900.7 979.5 891.9 979.5 676.5C979.5 481 979.2 438.6 977.5 428.6C977.3 427.5 976.9 424.5 976.6 422C973.7 396.1 964 352.1 957 333C956.5 331.6 954.5 325.8 952.5 320C950.4 314.2 948.2 308.1 947.5 306.5C946.7 304.8 944.3 299.2 942.2 294C930.5 265.8 911.5 231.9 892.8 205.7C884.5 194.1 867.6 172.7 861.1 165.5C849.3 152.7 832.6 135.8 823.9 127.9C798.1 104.7 772.3 85.7 741.7 67.7C734.7 63.5 729 60.3 729 60.6C729 60.9 727.8 60.2 726.2 59.2C719.9 54.7 685.2 38.7 667 32C648.9 25.2 622.2 17 610 14.4C608.7 14.1 604 13 599.5 12C591.6 10.2 572.8 6.59996 566 5.59996C553.6 3.79996 551.3 3.59996 540 2.49996C535.9 2.09996 530.9 1.59996 529 1.29996C525 0.699961 462.4 -0.100039 461.9 0.399961ZM492.5 136C504.7 137.4 506 137.6 517.5 141.1C530.3 145 542.1 150.5 552.9 157.7C557.6 160.8 561.7 163.6 562 164C562.3 164.3 563.7 165.5 565.2 166.7C567.9 168.7 568 168.7 574.6 166.9C586.4 163.6 598.1 162.2 613.5 162.2C644.1 162.2 674.2 172.4 699 191.3C708 198.1 721.8 212.3 727.9 221C732.2 227.2 734.3 229.1 741.2 233.2C745.7 235.8 751.8 239.9 754.9 242.3C764 249.2 781.2 267 784.4 272.9C784.9 273.8 786.7 276.7 788.5 279.5C797 292.6 804 311.2 806.9 328.5C809.4 343.8 809.1 367.5 806.1 381.9C802 401.5 791.1 424.1 779.4 437.5C778 439.1 775.8 441.6 774.6 443C765.1 453.9 747.2 467 732.2 474.1C724.4 477.8 708.8 483.3 703 484.4C701.6 484.7 698.3 485.3 695.5 485.9C692.8 486.4 687.1 487.1 683 487.5C675.6 488.1 673 489.4 673 492.6C673 495 664.1 512.7 658.9 520.7C636.2 555.3 600.8 577.1 557 583.4C552.7 584.1 528.3 584.2 525.5 583.6C524.4 583.4 521.3 582.9 518.5 582.6C515.8 582.2 511.8 581.5 509.7 580.9C506.2 580 505.3 580.2 500.2 583.2C480.2 595.1 459.4 601.7 437.7 603.2C435.5 603.4 434.2 604.7 430.8 610C428.5 613.6 426.4 616.7 426.1 617C425.7 617.3 424.2 619.2 422.6 621.4C411 636.9 391.6 652.2 371.4 661.6C363.2 665.5 348.5 670.5 342.5 671.6C341.4 671.7 339.3 672.1 337.9 672.4C326.9 674.7 303.4 675.3 291.5 673.5C269.9 670.4 246.7 661 228.6 648.1C200 627.8 178.9 594.8 173.5 562C173.2 560.1 172.7 557.3 172.4 555.9C172.2 554.5 171.7 548.4 171.5 542.2L171.1 531.1L165.4 524.4C150.6 506.9 140.5 486 135.3 462.2C133.5 454 132.9 427.8 134.2 418.5C135.3 410.8 138.8 397.2 141.4 390C143.2 385.3 144 380.4 144.5 372.5C146.5 337.4 159.9 307.1 184.5 282.5C189.5 277.5 196.7 271.1 200.7 268.1C206.6 263.7 209.3 260.8 215.4 251.6C229.5 230.6 248.5 213.2 269.4 202.2C272.8 200.4 276 197.9 277.1 196C281.3 189.1 293.6 176.6 300 172.5C302.5 171 304.7 169.4 305 169.1C305.3 168.8 307.3 167.6 309.5 166.5C311.7 165.4 313.7 164.2 314 163.9C316.3 161 337.3 152.1 345.5 150.5C347.9 150 349.2 149.7 354.6 148.2C359.8 146.7 358.1 146.8 392 146.4L420.5 146.1L430.5 142.6C442.6 138.4 453.6 136.1 465 135.3C469.7 135 473.6 134.7 473.7 134.6C474 134.3 483.8 135.1 492.5 136Z" fill="#ECC646"/>
</svg>
