<svg width="256" height="256" viewBox="0 0 256 256" fill="none" xmlns="http://www.w3.org/2000/svg">
<rect width="256" height="256" fill="#85BB4F"/>
<path d="M168.102 155.154C160.452 170.384 146.33 179.17 128.677 179.17C103.374 179.17 82.7789 156.326 82.7789 128.796C82.7789 100.68 103.374 77.8366 128.677 77.8366C146.33 77.8366 159.864 86.6227 168.102 101.852L170.456 105.952H214L210.469 95.9945C198.112 60.2643 166.925 38.0062 129.265 38.0062C80.4252 37.4205 41 78.4223 41 128.796C41 178.584 80.4252 219 128.677 219C166.925 219 198.112 196.742 210.469 161.012L214 151.054H170.456L168.102 155.154Z" fill="white"/>
</svg>
